<svg width="51" height="51" viewBox="0 0 51 51" fill="none" xmlns="http://www.w3.org/2000/svg">
<rect x="5" y="4" width="42" height="42" fill="white"/>
<path d="M45.9 0H5.1C2.55 0 0 2.295 0 5.1V12.7755C0 14.6115 1.0965 16.1925 2.55 17.085V45.9C2.55 48.705 5.355 51 7.65 51H43.35C45.645 51 48.45 48.705 48.45 45.9V17.085C49.9035 16.1925 51 14.6115 51 12.7755V5.1C51 2.295 48.45 0 45.9 0ZM43.35 45.9H7.65V17.85H43.35V45.9ZM45.9 12.75H5.1V5.1H45.9V12.75Z" fill="black"/>
<path d="M17.8501 25.5H33.1501V30.6H17.8501V25.5Z" fill="black"/>
</svg>
